<svg width="32" height="32" viewBox="0 0 32 32" fill="none" xmlns="http://www.w3.org/2000/svg">
<rect width="32" height="32" rx="16" fill="#BE0707"/>
<g clip-path="url(#clip0_10_54)">
<path d="M11 21.8333C11 22.75 11.75 23.5 12.6667 23.5H19.3334C20.25 23.5 21 22.75 21 21.8333V13.5C21 12.5833 20.25 11.8333 19.3334 11.8333H12.6667C11.75 11.8333 11 12.5833 11 13.5V21.8333ZM21 9.33333H18.9167L18.325 8.74167C18.175 8.59167 17.9584 8.5 17.7417 8.5H14.2584C14.0417 8.5 13.825 8.59167 13.675 8.74167L13.0834 9.33333H11C10.5417 9.33333 10.1667 9.70833 10.1667 10.1667C10.1667 10.625 10.5417 11 11 11H21C21.4584 11 21.8334 10.625 21.8334 10.1667C21.8334 9.70833 21.4584 9.33333 21 9.33333Z" fill="white"/>
</g>
<defs>
<clipPath id="clip0_10_54">
<rect width="20" height="20" fill="white" transform="translate(6 6)"/>
</clipPath>
</defs>
</svg>
