<svg width="20" height="20" viewBox="0 0 20 20" fill="none" xmlns="http://www.w3.org/2000/svg">
<path d="M14.9333 11.9041C14.3959 11.7884 13.9707 12.038 13.5943 12.2559C13.2088 12.4804 12.4758 13.0751 12.0556 12.9229C9.90429 12.0371 7.88096 10.1542 7.0051 7.99427C6.85073 7.56511 7.44262 6.8274 7.66551 6.43734C7.88179 6.05975 8.12614 5.6306 8.0147 5.08917C7.91398 4.60263 6.61133 2.94506 6.1507 2.49179C5.84691 2.19238 5.53569 2.02771 5.21622 2.00109C4.0151 1.94953 2.67365 3.5522 2.43838 3.93561C1.84896 4.75316 1.85227 5.84102 2.44828 7.16008C3.88467 10.7031 9.31735 16.05 12.8736 17.5404C13.5299 17.8473 14.1301 18.0012 14.6691 18.0012C15.1966 18.0012 15.6663 17.854 16.07 17.5621C16.3746 17.3866 18.043 15.9785 17.9992 14.7451C17.9728 14.4307 17.8085 14.1164 17.513 13.812C17.0631 13.347 15.4162 12.0055 14.9333 11.9041Z" fill="white"/>
</svg>
