<svg width="30" height="30" viewBox="0 0 30 30" fill="none" xmlns="http://www.w3.org/2000/svg">
<rect width="30" height="30" fill="#3EB597"/>
<path d="M10.2098 9.94477C10.2761 9.88 10.3549 9.8286 10.4417 9.79353C10.5285 9.75847 10.6215 9.74042 10.7154 9.74042C10.8093 9.74042 10.9023 9.75847 10.9891 9.79353C11.0759 9.8286 11.1547 9.88 11.221 9.94477L15.0002 13.6272L18.7794 9.94477C18.8458 9.8801 18.9246 9.8288 19.0113 9.7938C19.0981 9.7588 19.1911 9.74078 19.285 9.74078C19.3789 9.74078 19.4718 9.7588 19.5586 9.7938C19.6454 9.8288 19.7242 9.8801 19.7906 9.94477C19.857 10.0094 19.9096 10.0862 19.9456 10.1707C19.9815 10.2552 20 10.3458 20 10.4373C20 10.5287 19.9815 10.6193 19.9456 10.7038C19.9096 10.7883 19.857 10.8651 19.7906 10.9297L16.01 14.6108L19.7906 18.2919C19.857 18.3566 19.9096 18.4334 19.9456 18.5179C19.9815 18.6024 20 18.6929 20 18.7844C20 18.8758 19.9815 18.9664 19.9456 19.0509C19.9096 19.1354 19.857 19.2122 19.7906 19.2769C19.7242 19.3415 19.6454 19.3928 19.5586 19.4278C19.4718 19.4628 19.3789 19.4809 19.285 19.4809C19.1911 19.4809 19.0981 19.4628 19.0113 19.4278C18.9246 19.3928 18.8458 19.3415 18.7794 19.2769L15.0002 15.5944L11.221 19.2769C11.1546 19.3415 11.0758 19.3928 10.989 19.4278C10.9023 19.4628 10.8093 19.4809 10.7154 19.4809C10.6215 19.4809 10.5285 19.4628 10.4418 19.4278C10.355 19.3928 10.2762 19.3415 10.2098 19.2769C10.1434 19.2122 10.0907 19.1354 10.0548 19.0509C10.0189 18.9664 10.0004 18.8758 10.0004 18.7844C10.0004 18.6929 10.0189 18.6024 10.0548 18.5179C10.0907 18.4334 10.1434 18.3566 10.2098 18.2919L13.9904 14.6108L10.2098 10.9297C10.1433 10.8651 10.0905 10.7884 10.0545 10.7039C10.0185 10.6193 10 10.5287 10 10.4373C10 10.3458 10.0185 10.2552 10.0545 10.1707C10.0905 10.0861 10.1433 10.0094 10.2098 9.94477Z" fill="white"/>
</svg>
